<svg id="Capa_1" enable-background="new 0 0 512 512" height="512" viewBox="0 0 512 512" width="512" xmlns="http://www.w3.org/2000/svg"><path d="m231.178 240.627c12.394-7.216 26.151-11.651 40.714-13.209-6.896-64.654 28.663-124.411 83.688-151.108 8.979-4.36 18.309-7.397 27.761-9.833-32.844-19.62-70.265-32.012-110.392-34.611-47.915-3.116-93.957 7.015-134.826 28.466-10.901 18.329-17.123 39.114-17.123 60.993 0 62.697 48.159 114.267 110.178 119.302z"/><path d="m307.826 351.877c16.378 17.651 55.404 11.144 55.107-17.373l-.045-4.831c-.377-40.619-33.412-73.348-74.032-73.348-127.05 0-91.031 226.643 14.017 215.857 17.584-11.068 28.127-30.166 28.127-50.857 0-11.133-3.64-21.469-9.331-30.815-13.619-1.827-26.406-8.066-35.845-18.243-11.235-12.114-16.948-28.521-15.703-45l29.912 2.285c-.63 8.292 2.139 16.216 7.793 22.325z"/><path d="m94.677 89.21c-62.809 51.651-94.677 124.946-94.677 197.115v68.027c3.001 1.054 79.86 63.332 179.412 18.135-5.221-45.451 5.28-81.049 22.11-104.868.211-.298.502-.498.716-.793l-.103-.76c-74.395-19.87-125.263-95.052-107.458-176.856z"/><path d="m302.829 227.737c24.979 3.424 47.047 15.621 63.162 33.602 21.086-12.889 44.907-20.013 70.009-20.013 26.213 0 52.478 8.159 74.132 22.148-7.89-68.815-42.669-129.758-92.093-171.96-16.95.405-33.607 4.138-49.363 11.779-43.737 21.239-73.667 67.545-65.847 124.444z"/><path d="m382.791 286.408c6.207 13.154 9.966 27.662 10.098 43.086-.496 3.028 3.295 25.111-16.187 44.78-6.308 6.368-13.991 10.851-22.35 13.687 4.221 10.525 6.647 21.716 6.647 33.364 0 22.246-8.282 43.136-22.593 59.361 42.198-1.67 81.927-17.296 113.663-46.163 36.993-33.636 59.407-81.414 59.931-131.331-33.073-33.531-88.772-40.152-129.209-16.784z"/></svg>