<?xml version="1.0" encoding="UTF-8"?>
<svg width="438px" height="418px" viewBox="0 0 438 418" version="1.1" xmlns="http://www.w3.org/2000/svg" xmlns:xlink="http://www.w3.org/1999/xlink" xmlns:sketch="http://www.bohemiancoding.com/sketch/ns">
    <!-- Generator: Sketch 3.4.2 (15855) - http://www.bohemiancoding.com/sketch -->
    <title>star</title>
    <desc>Created with Sketch.</desc>
    <defs></defs>
    <g id="Page-1" stroke="none" stroke-width="1" fill="none" fill-rule="evenodd" sketch:type="MSPage">
        <path d="M202.098,12.935 L159.216,145.402 L18.392,145.402 C8.668,145.402 0.95,153.858 0.95,163.662 C0.947773812,169.447353 3.7604707,174.872053 8.49,178.204 C11.304,180.111 122.237,261.152 122.237,261.152 C122.237,261.152 79.632,391.987 78.806,394.073 C78.176,395.98 77.723,398.074 77.723,400.248 C77.723,410.061 85.62,417.966 95.345,417.966 C99.071,417.966 102.523,416.785 105.432,414.791 L219,319.106 C219,319.106 331.716805,414.181811 332.569,414.791 C335.468,416.785 338.93,417.966 342.647,417.966 C352.372,417.966 360.277,409.972 360.277,400.248 C360.277,398.074 359.827,395.98 359.185,394.073 C358.37,391.987 315.764,261.152 315.764,261.152 C315.764,261.152 426.688,180.111 429.508,178.204 C434.051,175.019 437.05,169.661 437.05,163.574 C437.05,153.857 429.508,145.402 419.783,145.402 L278.961,145.402 L235.892,12.935 C233.81,5.482 227.081,0.034 219,0.034 C210.909,0.034 204.192,5.482 202.098,12.935 Z"/>
    </g>
</svg>
