<svg>
  <clipPath id="path-heart" clipPathUnits="objectBoundingBox">
    <path d="M0.5,1
      C 0.5,1,0,0.7,0,0.25
      A 0.25,0.25,1,1,1,0.5,0.25
      A 0.25,0.25,1,1,1,1,0.25
      C 1,0.7,0.5,1,0.5,1 Z" />
  </clipPath>

  <clipPath id="path-heart-abs" viewBox="0 0 100 100" height="100" width="100" clipPathUnits="userSpaceOnUse">
    <path d="M150,300
      C 150,300,0,210,0,75
      A 75,75,1,1,1,150,75
      A 75,75,1,1,1,300,75
      C 300,210,150,300,150,300 Z" />
  </clipPath>

  <clipPath id="path-star" clipPathUnits="objectBoundingBox">
    <path d="M0.463,0.031 L0.365,0.348 L0.042,0.348 C0.02,0.348,0.002,0.368,0.002,0.392 C0.002,0.405,0.009,0.418,0.019,0.426 C0.026,0.431,0.28,0.625,0.28,0.625 C0.28,0.625,0.183,0.938,0.181,0.943 C0.179,0.947,0.178,0.952,0.178,0.958 C0.178,0.981,0.196,1,0.219,1 C0.227,1,0.235,0.997,0.242,0.992 L0.502,0.764 C0.502,0.764,0.761,0.991,0.763,0.992 C0.769,0.997,0.777,1,0.786,1 C0.808,1,0.826,0.981,0.826,0.958 C0.826,0.952,0.825,0.947,0.824,0.943 C0.822,0.938,0.724,0.625,0.724,0.625 C0.724,0.625,0.978,0.431,0.985,0.426 C0.995,0.419,1.002,0.406,1.002,0.391 C1.002,0.368,0.985,0.348,0.963,0.348 L0.64,0.348 L0.541,0.031 C0.536,0.013,0.521,0,0.502,0 C0.484,0,0.468,0.013,0.463,0.031"/>
  </clipPath>

  <clipPath id="path-leaf" clipPathUnits="objectBoundingBox"><path d="M0.989,0.131 c-0.108,-0.082,-0.275,-0.131,-0.446,-0.131 c-0.211,0,-0.384,0.074,-0.473,0.202 c-0.042,0.06,-0.065,0.132,-0.069,0.212 c-0.003,0.072,0.009,0.151,0.036,0.237 c0.093,-0.278,0.352,-0.495,0.651,-0.495 c0,0,-0.28,0.074,-0.455,0.301 c0,0,-0.002,0.003,-0.006,0.009 c-0.035,0.047,-0.066,0.101,-0.089,0.162 c-0.039,0.093,-0.075,0.22,-0.075,0.373 h0.125 c0,0,-0.019,-0.119,0.014,-0.257 c0.055,0.007,0.104,0.011,0.148,0.011 c0.115,0,0.197,-0.025,0.258,-0.078 c0.054,-0.048,0.084,-0.112,0.116,-0.18 c0.048,-0.104,0.103,-0.222,0.263,-0.313 c0.009,-0.005,0.015,-0.015,0.016,-0.025 s-0.004,-0.021,-0.012,-0.027"></path></clipPath>
</svg>
